<svg width="36" height="36" viewBox="0 0 36 36" fill="none" xmlns="http://www.w3.org/2000/svg">
<path d="M22.5 7.5C22.5 8.32843 21.8284 9 21 9C20.1716 9 19.5 8.32843 19.5 7.5C19.5 6.67157 20.1716 6 21 6C21.8284 6 22.5 6.67157 22.5 7.5Z" fill="#757575"/>
<path d="M14 12C14 13.1046 13.1046 14 12 14C10.8954 14 10 13.1046 10 12C10 10.8954 10.8954 10 12 10C13.1046 10 14 10.8954 14 12Z" fill="#757575"/>
<path d="M18 14C19.1046 14 20 13.1046 20 12C20 10.8954 19.1046 10 18 10C16.8954 10 16 10.8954 16 12C16 13.1046 16.8954 14 18 14Z" fill="#757575"/>
<path d="M15 19C16.1046 19 17 18.1046 17 17C17 15.8954 16.1046 15 15 15C13.8954 15 13 15.8954 13 17C13 18.1046 13.8954 19 15 19Z" fill="#757575"/>
<path d="M21 19C22.1046 19 23 18.1046 23 17C23 15.8954 22.1046 15 21 15C19.8954 15 19 15.8954 19 17C19 18.1046 19.8954 19 21 19Z" fill="#757575"/>
<path d="M24 14C25.1046 14 26 13.1046 26 12C26 10.8954 25.1046 10 24 10C22.8954 10 22 10.8954 22 12C22 13.1046 22.8954 14 24 14Z" fill="#757575"/>
<path d="M16.5 7.5C16.5 8.32843 15.8284 9 15 9C14.1716 9 13.5 8.32843 13.5 7.5C13.5 6.67157 14.1716 6 15 6C15.8284 6 16.5 6.67157 16.5 7.5Z" fill="#757575"/>
<path d="M13 28C13 29.3807 11.8807 30.5 10.5 30.5C9.11929 30.5 8 29.3807 8 28C8 26.6193 9.11929 25.5 10.5 25.5C11.8807 25.5 13 26.6193 13 28Z" fill="#757575"/>
<path d="M25.5 30.5C26.8807 30.5 28 29.3807 28 28C28 26.6193 26.8807 25.5 25.5 25.5C24.1193 25.5 23 26.6193 23 28C23 29.3807 24.1193 30.5 25.5 30.5Z" fill="#757575"/>
<path fill-rule="evenodd" clip-rule="evenodd" d="M24.6356 22C27.869 19.8502 30 16.1739 30 12C30 7.82606 27.869 4.14984 24.6356 2H11.3644C8.13102 4.14984 6 7.82606 6 12C6 16.1739 8.13102 19.8502 11.3644 22H10C6.68629 22 4 24.6863 4 28C4 31.3137 6.68629 34 10 34H26C29.3137 34 32 31.3137 32 28C32 24.6863 29.3137 22 26 22H24.6356ZM8 12C8 8.73101 9.5671 5.82726 11.9988 4H24.0012C26.4329 5.82726 28 8.73101 28 12C28 17.5228 23.5228 22 18 22C12.4772 22 8 17.5228 8 12ZM10 24C7.79086 24 6 25.7909 6 28C6 30.2091 7.79086 32 10 32H26C28.2091 32 30 30.2091 30 28C30 25.7909 28.2091 24 26 24H10Z" fill="#757575"/>
</svg>
