<svg width="36" height="36" viewBox="0 0 36 36" fill="none" xmlns="http://www.w3.org/2000/svg">
<path d="M14 18C14 19.933 12.433 21.5 10.5 21.5C8.567 21.5 7 19.933 7 18C7 16.067 8.567 14.5 10.5 14.5C12.433 14.5 14 16.067 14 18Z" fill="#757575"/>
<path d="M25.5 21.5C27.433 21.5 29 19.933 29 18C29 16.067 27.433 14.5 25.5 14.5C23.567 14.5 22 16.067 22 18C22 19.933 23.567 21.5 25.5 21.5Z" fill="#757575"/>
<path fill-rule="evenodd" clip-rule="evenodd" d="M18 14C17.3572 14 16.7617 13.7979 16.2735 13.4537C15.5035 12.9106 15 12.0138 15 11C15 9.34315 16.3431 8 18 8C19.6569 8 21 9.34315 21 11C21 12.6569 19.6569 14 18 14ZM19.7236 12.0151C19.8992 11.7175 20 11.3705 20 11C20 10.6343 19.9019 10.2916 19.7305 9.99665L18.7178 11.0093L19.7236 12.0151ZM19.0169 12.7226L18.0107 11.7164L16.9966 12.7305C17.2916 12.9019 17.6343 13 18 13C18.3713 13 18.7189 12.8988 19.0169 12.7226ZM18.0107 10.3022L19.0285 9.28439C18.728 9.10383 18.3761 9 18 9C17.6295 9 17.2825 9.10077 16.9849 9.27639L18.0107 10.3022ZM16.2774 9.98314C16.1012 10.2811 16 10.6287 16 11C16 11.3761 16.1038 11.728 16.2844 12.0285L17.3036 11.0093L16.2774 9.98314Z" fill="#757575"/>
<path fill-rule="evenodd" clip-rule="evenodd" d="M16.2735 27.4537C16.7617 27.7979 17.3572 28 18 28C19.6569 28 21 26.6569 21 25C21 23.3431 19.6569 22 18 22C16.3431 22 15 23.3431 15 25C15 26.0138 15.5035 26.9106 16.2735 27.4537ZM20 25C20 25.3705 19.8992 25.7175 19.7236 26.0151L18.7178 25.0093L19.7305 23.9966C19.9019 24.2916 20 24.6343 20 25ZM18.0107 25.7164L19.0169 26.7226C18.7189 26.8988 18.3713 27 18 27C17.6343 27 17.2916 26.9019 16.9966 26.7305L18.0107 25.7164ZM19.0285 23.2844L18.0107 24.3022L16.9849 23.2764C17.2825 23.1008 17.6295 23 18 23C18.3761 23 18.728 23.1038 19.0285 23.2844ZM16 25C16 24.6287 16.1012 24.2811 16.2774 23.9831L17.3036 25.0093L16.2844 26.0285C16.1038 25.728 16 25.3761 16 25Z" fill="#757575"/>
<path fill-rule="evenodd" clip-rule="evenodd" d="M34 18C34 26.8366 26.8366 34 18 34C9.16344 34 2 26.8366 2 18C2 9.16344 9.16344 2 18 2C26.8366 2 34 9.16344 34 18ZM32 18C32 25.732 25.732 32 18 32C10.268 32 4 25.732 4 18C4 10.268 10.268 4 18 4C25.732 4 32 10.268 32 18Z" fill="#757575"/>
</svg>
