<svg width="36" height="36" viewBox="0 0 36 36" fill="none" xmlns="http://www.w3.org/2000/svg">
<path d="M19.5 11C19.5 11.8284 18.8284 12.5 18 12.5C17.1716 12.5 16.5 11.8284 16.5 11C16.5 10.1716 17.1716 9.5 18 9.5C18.8284 9.5 19.5 10.1716 19.5 11Z" fill="#757575"/>
<path d="M18 16.5C18.8284 16.5 19.5 15.8284 19.5 15C19.5 14.1716 18.8284 13.5 18 13.5C17.1716 13.5 16.5 14.1716 16.5 15C16.5 15.8284 17.1716 16.5 18 16.5Z" fill="#757575"/>
<path d="M15.5 19C15.5 17.067 13.933 15.5 12 15.5C10.067 15.5 8.5 17.067 8.5 19C8.5 20.933 10.067 22.5 12 22.5C13.933 22.5 15.5 20.933 15.5 19Z" fill="#757575"/>
<path d="M27.5 19C27.5 17.067 25.933 15.5 24 15.5C22.067 15.5 20.5 17.067 20.5 19C20.5 20.933 22.067 22.5 24 22.5C25.933 22.5 27.5 20.933 27.5 19Z" fill="#757575"/>
<path d="M14.5 26C14.5 26.8284 13.8284 27.5 13 27.5C12.1716 27.5 11.5 26.8284 11.5 26C11.5 25.1716 12.1716 24.5 13 24.5C13.8284 24.5 14.5 25.1716 14.5 26Z" fill="#757575"/>
<path d="M23 27.5C23.8284 27.5 24.5 26.8284 24.5 26C24.5 25.1716 23.8284 24.5 23 24.5C22.1716 24.5 21.5 25.1716 21.5 26C21.5 26.8284 22.1716 27.5 23 27.5Z" fill="#757575"/>
<path d="M22 12.5C22.8284 12.5 23.5 11.8284 23.5 11C23.5 10.1716 22.8284 9.5 22 9.5C21.1716 9.5 20.5 10.1716 20.5 11C20.5 11.8284 21.1716 12.5 22 12.5Z" fill="#757575"/>
<path d="M15.5 11C15.5 11.8284 14.8284 12.5 14 12.5C13.1716 12.5 12.5 11.8284 12.5 11C12.5 10.1716 13.1716 9.5 14 9.5C14.8284 9.5 15.5 10.1716 15.5 11Z" fill="#757575"/>
<path d="M18 28.5C19.3807 28.5 20.5 27.3807 20.5 26C20.5 24.6193 19.3807 23.5 18 23.5C16.6193 23.5 15.5 24.6193 15.5 26C15.5 27.3807 16.6193 28.5 18 28.5Z" fill="#757575"/>
<path fill-rule="evenodd" clip-rule="evenodd" d="M2 18C2 12.6449 4.63084 7.90423 8.67055 5H27.3294C31.3692 7.90423 34 12.6449 34 18C34 26.8366 26.8366 34 18 34C9.16344 34 2 26.8366 2 18ZM4 18C4 13.5399 6.08384 9.56657 9.33864 7H26.6614C29.9162 9.56657 32 13.5399 32 18C32 25.732 25.732 32 18 32C10.268 32 4 25.732 4 18Z" fill="#757575"/>
</svg>
