<svg width="36" height="36" viewBox="0 0 36 36" fill="none" xmlns="http://www.w3.org/2000/svg">
<path d="M15 14C15 15.6569 13.6569 17 12 17C10.3431 17 9 15.6569 9 14C9 12.3431 10.3431 11 12 11C13.6569 11 15 12.3431 15 14Z" fill="#757575"/>
<path d="M12 20.5C12 21.3284 11.3284 22 10.5 22C9.67157 22 9 21.3284 9 20.5C9 19.6716 9.67157 19 10.5 19C11.3284 19 12 19.6716 12 20.5Z" fill="#757575"/>
<path d="M27 20.5C27 21.3284 26.3284 22 25.5 22C24.6716 22 24 21.3284 24 20.5C24 19.6716 24.6716 19 25.5 19C26.3284 19 27 19.6716 27 20.5Z" fill="#757575"/>
<path d="M18 28C19.6569 28 21 26.6569 21 25C21 23.3431 19.6569 22 18 22C16.3431 22 15 23.3431 15 25C15 26.6569 16.3431 28 18 28Z" fill="#757575"/>
<path d="M24 17C25.6569 17 27 15.6569 27 14C27 12.3431 25.6569 11 24 11C22.3431 11 21 12.3431 21 14C21 15.6569 22.3431 17 24 17Z" fill="#757575"/>
<path fill-rule="evenodd" clip-rule="evenodd" d="M34 18C34 26.8366 26.8366 34 18 34C9.16344 34 2 26.8366 2 18C2 9.16344 9.16344 2 18 2C26.8366 2 34 9.16344 34 18ZM32 18C32 25.732 25.732 32 18 32C10.268 32 4 25.732 4 18C4 10.268 10.268 4 18 4C25.732 4 32 10.268 32 18Z" fill="#757575"/>
</svg>
