<svg width="36" height="36" viewBox="0 0 36 36" fill="none" xmlns="http://www.w3.org/2000/svg">
<path d="M19.5 7.5V15.5H16.5V7.5H19.5Z" fill="#757575"/>
<path d="M12 14H9V22H12V14Z" fill="#757575"/>
<path d="M15.5 25.5C15.5 24.1193 16.6193 23 18 23C19.3807 23 20.5 24.1193 20.5 25.5V28.5H15.5V25.5Z" fill="#757575"/>
<path d="M24 14H27V22H24V14Z" fill="#757575"/>
<path fill-rule="evenodd" clip-rule="evenodd" d="M34 18C34 26.8366 26.8366 34 18 34C9.16344 34 2 26.8366 2 18C2 9.16344 9.16344 2 18 2C26.8366 2 34 9.16344 34 18ZM32 18C32 25.732 25.732 32 18 32C10.268 32 4 25.732 4 18C4 10.268 10.268 4 18 4C25.732 4 32 10.268 32 18Z" fill="#757575"/>
</svg>
