<svg width="36" height="36" viewBox="0 0 36 36" fill="none" xmlns="http://www.w3.org/2000/svg">
<path d="M18 13C19.3807 13 20.5 11.8807 20.5 10.5C20.5 9.11929 19.3807 8 18 8C16.6193 8 15.5 9.11929 15.5 10.5C15.5 11.8807 16.6193 13 18 13Z" fill="#757575"/>
<path d="M10.5 21.5C12.433 21.5 14 19.933 14 18C14 16.067 12.433 14.5 10.5 14.5C8.567 14.5 7 16.067 7 18C7 19.933 8.567 21.5 10.5 21.5Z" fill="#757575"/>
<path d="M25.5 21.5C27.433 21.5 29 19.933 29 18C29 16.067 27.433 14.5 25.5 14.5C23.567 14.5 22 16.067 22 18C22 19.933 23.567 21.5 25.5 21.5Z" fill="#757575"/>
<path d="M18 29C19.933 29 21.5 27.433 21.5 25.5C21.5 23.567 19.933 22 18 22C16.067 22 14.5 23.567 14.5 25.5C14.5 27.433 16.067 29 18 29Z" fill="#757575"/>
<path fill-rule="evenodd" clip-rule="evenodd" d="M34 18C34 26.8366 26.8366 34 18 34C9.16344 34 2 26.8366 2 18C2 9.16344 9.16344 2 18 2C26.8366 2 34 9.16344 34 18ZM32 18C32 25.732 25.732 32 18 32C10.268 32 4 25.732 4 18C4 10.268 10.268 4 18 4C25.732 4 32 10.268 32 18Z" fill="#757575"/>
</svg>
