<svg width="36" height="36" viewBox="0 0 36 36" fill="none" xmlns="http://www.w3.org/2000/svg">
<path d="M17.9999 27C19.6469 27 20.982 25.6569 20.982 24C20.982 22.3431 19.6469 21 17.9999 21C16.3529 21 15.0178 22.3431 15.0178 24C15.0178 25.6569 16.3529 27 17.9999 27Z" fill="#757575"/>
<path d="M26.9462 24C26.9462 25.1046 26.0561 26 24.9581 26C23.8601 26 22.9701 25.1046 22.9701 24C22.9701 22.8954 23.8601 22 24.9581 22C26.0561 22 26.9462 22.8954 26.9462 24Z" fill="#757575"/>
<path d="M13.0297 24C13.0297 25.1046 12.1396 26 11.0417 26C9.94368 26 9.05359 25.1046 9.05359 24C9.05359 22.8954 9.94368 22 11.0417 22C12.1396 22 13.0297 22.8954 13.0297 24Z" fill="#757575"/>
<path fill-rule="evenodd" clip-rule="evenodd" d="M2.68741 10.4733C3.64224 7.91175 5.82925 6.29827 8.48777 5.3382C11.1392 4.38068 14.4385 4 18 4C21.5614 4 24.8607 4.38068 27.5122 5.3382C30.1707 6.29826 32.3578 7.91174 33.3126 10.4733C33.8673 11.9615 34.1004 14.0223 33.9601 16.2172C33.8185 18.4343 33.2891 20.9041 32.2162 23.226C30.0353 27.9457 25.6112 32 18 32C10.3887 32 5.96459 27.9457 3.78374 23.226C2.71086 20.9041 2.18153 18.4343 2.03987 16.2172C1.89962 14.0223 2.13269 11.9615 2.68741 10.4733ZM9.67833 7.04563C11.9457 6.32172 14.7956 6 18 6C21.2044 6 24.0542 6.32172 26.3216 7.04563C23.8811 7.37667 22 9.46866 22 12C22 14.7614 24.2386 17 27 17C29.3898 17 31.388 15.3234 31.8826 13.0823C31.9986 13.9702 32.0343 14.992 31.9642 16.0897C31.8359 18.0968 31.3559 20.3199 30.4007 22.387C28.5008 26.4986 24.7273 30 18 30C11.2726 30 7.4991 26.4986 5.59929 22.387C4.64412 20.3199 4.16405 18.0968 4.0358 16.0897C3.96566 14.9921 4.00139 13.9702 4.11745 13.0823C4.61201 15.3234 6.61021 17 9 17C11.7614 17 14 14.7614 14 12C14 9.46865 12.1189 7.37665 9.67833 7.04563ZM12 12C12 13.6569 10.6569 15 9 15C7.34315 15 6 13.6569 6 12C6 10.3431 7.34315 9 9 9C10.6569 9 12 10.3431 12 12ZM27 15C28.6569 15 30 13.6569 30 12C30 10.3431 28.6569 9 27 9C25.3431 9 24 10.3431 24 12C24 13.6569 25.3431 15 27 15Z" fill="#757575"/>
</svg>
