<svg width="36" height="36" viewBox="0 0 36 36" fill="none" xmlns="http://www.w3.org/2000/svg">
<path d="M20 11C20 12.1046 19.1046 13 18 13C16.8954 13 16 12.1046 16 11C16 9.89543 16.8954 9 18 9C19.1046 9 20 9.89543 20 11Z" fill="#757575"/>
<path d="M13 18C13 19.1046 12.1046 20 11 20C9.89543 20 9 19.1046 9 18C9 16.8954 9.89543 16 11 16C12.1046 16 13 16.8954 13 18Z" fill="#757575"/>
<path d="M18 20C19.1046 20 20 19.1046 20 18C20 16.8954 19.1046 16 18 16C16.8954 16 16 16.8954 16 18C16 19.1046 16.8954 20 18 20Z" fill="#757575"/>
<path d="M27 18C27 19.1046 26.1046 20 25 20C23.8954 20 23 19.1046 23 18C23 16.8954 23.8954 16 25 16C26.1046 16 27 16.8954 27 18Z" fill="#757575"/>
<path d="M20 25C20 26.1046 19.1046 27 18 27C16.8954 27 16 26.1046 16 25C16 23.8954 16.8954 23 18 23C19.1046 23 20 23.8954 20 25Z" fill="#757575"/>
<path fill-rule="evenodd" clip-rule="evenodd" d="M34 18C34 26.8366 26.8366 34 18 34C9.16344 34 2 26.8366 2 18C2 9.16344 9.16344 2 18 2C26.8366 2 34 9.16344 34 18ZM32 18C32 25.732 25.732 32 18 32C10.268 32 4 25.732 4 18C4 10.268 10.268 4 18 4C25.732 4 32 10.268 32 18Z" fill="#757575"/>
</svg>
