<svg width="36" height="36" viewBox="0 0 36 36" fill="none" xmlns="http://www.w3.org/2000/svg">
<path d="M16 13C16 14.1046 15.1046 15 14 15C12.8954 15 12 14.1046 12 13C12 11.8954 12.8954 11 14 11C15.1046 11 16 11.8954 16 13Z" fill="#757575"/>
<path d="M18 21C19.3807 21 20.5 19.8807 20.5 18.5C20.5 17.1193 19.3807 16 18 16C16.6193 16 15.5 17.1193 15.5 18.5C15.5 19.8807 16.6193 21 18 21Z" fill="#757575"/>
<path d="M24 13C24 14.1046 23.1046 15 22 15C20.8954 15 20 14.1046 20 13C20 11.8954 20.8954 11 22 11C23.1046 11 24 11.8954 24 13Z" fill="#757575"/>
<path d="M17 24.5C17 25.8807 15.8807 27 14.5 27C13.1193 27 12 25.8807 12 24.5C12 23.1193 13.1193 22 14.5 22C15.8807 22 17 23.1193 17 24.5Z" fill="#757575"/>
<path d="M24 24.5C24 25.8807 22.8807 27 21.5 27C20.1193 27 19 25.8807 19 24.5C19 23.1193 20.1193 22 21.5 22C22.8807 22 24 23.1193 24 24.5Z" fill="#757575"/>
<path d="M28 18.5C28 19.8807 26.8807 21 25.5 21C24.1193 21 23 19.8807 23 18.5C23 17.1193 24.1193 16 25.5 16C26.8807 16 28 17.1193 28 18.5Z" fill="#757575"/>
<path d="M13 18.5C13 19.8807 11.8807 21 10.5 21C9.11929 21 8 19.8807 8 18.5C8 17.1193 9.11929 16 10.5 16C11.8807 16 13 17.1193 13 18.5Z" fill="#757575"/>
<path fill-rule="evenodd" clip-rule="evenodd" d="M2 18C2 12.6449 4.63084 7.90423 8.67055 5H27.3294C31.3692 7.90423 34 12.6449 34 18C34 26.8366 26.8366 34 18 34C9.16344 34 2 26.8366 2 18ZM4 18C4 13.5399 6.08384 9.56657 9.33864 7H26.6614C29.9162 9.56657 32 13.5399 32 18C32 25.732 25.732 32 18 32C10.268 32 4 25.732 4 18Z" fill="#757575"/>
</svg>
