<svg width="36" height="36" viewBox="0 0 36 36" fill="none" xmlns="http://www.w3.org/2000/svg">
<path d="M19.5 14V9H16.5V14H19.5Z" fill="#757575"/>
<path d="M10 24V21H15V24H10Z" fill="#757575"/>
<path d="M21 24V21H26V24H21Z" fill="#757575"/>
<path fill-rule="evenodd" clip-rule="evenodd" d="M34 18C34 26.8366 26.8366 34 18 34C9.16344 34 2 26.8366 2 18C2 9.16344 9.16344 2 18 2C26.8366 2 34 9.16344 34 18ZM32 18C32 25.732 25.732 32 18 32C10.268 32 4 25.732 4 18C4 10.268 10.268 4 18 4C25.732 4 32 10.268 32 18Z" fill="#757575"/>
</svg>
