<svg width="36" height="36" viewBox="0 0 36 36" fill="none" xmlns="http://www.w3.org/2000/svg">
<path d="M13 18C13 19.1046 12.1046 20 11 20C9.89543 20 9 19.1046 9 18C9 16.8954 9.89543 16 11 16C12.1046 16 13 16.8954 13 18Z" fill="#757575"/>
<path d="M25 20C26.1046 20 27 19.1046 27 18C27 16.8954 26.1046 16 25 16C23.8954 16 23 16.8954 23 18C23 19.1046 23.8954 20 25 20Z" fill="#757575"/>
<path fill-rule="evenodd" clip-rule="evenodd" d="M34 18C34 26.8366 26.8366 34 18 34C9.16344 34 2 26.8366 2 18C2 9.16344 9.16344 2 18 2C26.8366 2 34 9.16344 34 18ZM20 31.8582C24.2457 31.2509 27.8769 28.7387 30 25.2152V20H32V16H30V10.7848C27.8769 7.26127 24.2457 4.74907 20 4.14178V6H16V4.14178C11.7543 4.74907 8.12314 7.26127 6 10.7848V16H4V20H6V25.2152C8.12314 28.7387 11.7543 31.2509 16 31.8582V30H20V31.8582Z" fill="#757575"/>
</svg>
