<svg width="36" height="36" viewBox="0 0 36 36" fill="none" xmlns="http://www.w3.org/2000/svg">
<path d="M14 11H11V19H14V11Z" fill="#757575"/>
<path d="M22 12H25V18H22V12Z" fill="#757575"/>
<path d="M15.5 24.5C15.5 23.1193 16.6193 22 18 22C19.3807 22 20.5 23.1193 20.5 24.5V27.5H15.5V24.5Z" fill="#757575"/>
<path fill-rule="evenodd" clip-rule="evenodd" d="M34 18C34 26.8366 26.8366 34 18 34C9.16344 34 2 26.8366 2 18C2 9.16344 9.16344 2 18 2C26.8366 2 34 9.16344 34 18ZM32 18C32 25.732 25.732 32 18 32C10.268 32 4 25.732 4 18C4 10.268 10.268 4 18 4C25.732 4 32 10.268 32 18Z" fill="#757575"/>
</svg>
